<?xml version="1.0" encoding="UTF-8"?>
<svg version="1.1" xmlns="http://www.w3.org/2000/svg" width="1320" height="199">
<path d="M0 0 C435.6 0 871.2 0 1320 0 C1320 65.67 1320 131.34 1320 199 C884.4 199 448.8 199 0 199 C0 133.33 0 67.66 0 0 Z " fill="#080B10" transform="translate(0,0)"/>
<path d="M0 0 C1.17691406 0.33 2.35382813 0.66 3.56640625 1 C24.67973716 7.30011899 42.76029809 21.61220512 53.28515625 41.07421875 C57.84296465 50.0502683 60.99476478 59.35879777 63.49609375 69.09082031 C63.94419437 70.78856589 64.45236889 72.47019891 64.96875 74.1484375 C67.01373278 81.36268231 67.27670638 88.36155877 67.3125 95.8125 C67.31805908 96.7917041 67.32361816 97.7709082 67.3293457 98.77978516 C67.19197714 112.5565602 62.95075514 124.86969204 53.234375 134.82421875 C52.49703125 135.54222656 51.7596875 136.26023438 51 137 C50.46890625 137.56332031 49.9378125 138.12664062 49.390625 138.70703125 C39.86976726 148.00704436 24.60727603 151.98275304 12 155 C11.32678711 155.16516113 10.65357422 155.33032227 9.95996094 155.50048828 C-1.47240758 158.15924258 -13.0096624 158.30894087 -24.6875 158.375 C-25.42417908 158.38294586 -26.16085815 158.39089172 -26.91986084 158.39907837 C-49.69602453 158.58767 -72.79028532 153.84715399 -89.875 137.6875 C-103.76164324 122.70921936 -108.14311662 105.73499302 -107.39453125 85.71875 C-106.95768837 78.26657962 -105.82635 71.24242242 -104 64 C-103.7215625 62.8140625 -103.443125 61.628125 -103.15625 60.40625 C-97.68254641 39.07768085 -85.17254524 21.62131322 -66.625 9.75 C-47.08038667 -1.72134248 -22.20917813 -6.2616185 0 0 Z " fill="#808183" transform="translate(159,18)"/>
<path d="M0 0 C14.28384467 12.15840859 23.07493405 31.93550258 24.9909668 50.59692383 C26.06521489 69.88703355 26.06521489 69.88703355 19.75 77.25 C4.97030244 91.60336013 -19.73091131 92.5017206 -39.0625 92.625 C-40.36123047 92.63893799 -41.65996094 92.65287598 -42.99804688 92.66723633 C-58.52713696 92.59109395 -73.54301199 89.71904046 -85.046875 78.7578125 C-93.66997861 68.94215201 -94.03251488 57.35442097 -93.48095703 44.89013672 C-91.91702806 27.01241167 -84.18330182 10.56688472 -70.4375 -1.0625 C-49.59584756 -16.88553368 -20.50426868 -15.53544284 0 0 Z " fill="#9EEAC1" transform="translate(173.25,55.75)"/>
<path d="M0 0 C10.70917109 8.33161318 13.46502123 21.99498516 15.80859375 34.6640625 C15.80859375 35.6540625 15.80859375 36.6440625 15.80859375 37.6640625 C13.31120517 38.48541239 10.8111457 39.29621998 8.30859375 40.1015625 C7.6125 40.33166016 6.91640625 40.56175781 6.19921875 40.79882812 C-7.57724877 45.19964414 -29.84246736 47.28909143 -43.19140625 40.6640625 C-46.28737212 37.60234404 -46.64836391 35.12889498 -46.69140625 30.8515625 C-46.38770891 19.60210692 -43.12163121 9.58340944 -35.25390625 1.3984375 C-25.53430728 -6.77486164 -10.69097609 -6.51749344 0 0 Z " fill="#16E28D" transform="translate(154.19140625,76.3359375)"/>
<path d="M0 0 C2.64 0 5.28 0 8 0 C11.03056677 10.92938442 13.61260221 21.91383897 16 33 C18.74360651 24.46263226 21.13588707 15.87767481 23.33666992 7.1862793 C24.89590042 1.10409958 24.89590042 1.10409958 26 0 C27.51928038 -0.07179964 29.04167482 -0.08392007 30.5625 -0.0625 C31.38878906 -0.05347656 32.21507812 -0.04445313 33.06640625 -0.03515625 C33.70449219 -0.02355469 34.34257813 -0.01195313 35 0 C35.23710693 0.93384521 35.47421387 1.86769043 35.71850586 2.82983398 C36.59651143 6.28402121 37.47907241 9.73703068 38.36303711 13.18969727 C38.74547323 14.68612284 39.12666193 16.18286778 39.5065918 17.67993164 C40.05192102 19.82783201 40.60168016 21.97455567 41.15234375 24.12109375 C41.3221727 24.79401962 41.49200165 25.4669455 41.66697693 26.16026306 C42.30546148 29.34772732 42.30546148 29.34772732 44 32 C46.64 21.44 49.28 10.88 52 0 C54.97 0 57.94 0 61 0 C58.97891453 9.44816379 56.40544264 18.64448864 53.62744141 27.89111328 C52.30708526 32.32894847 51.05791421 36.78720472 49.796875 41.2421875 C49.23875264 43.17372861 48.63579491 45.09261528 48 47 C45.03 47 42.06 47 39 47 C38.67386719 45.67226562 38.34773437 44.34453125 38.01171875 42.9765625 C37.57090604 41.19256157 37.12945937 39.40871721 36.6875 37.625 C36.4603833 36.70775146 36.2332666 35.79050293 35.99926758 34.84545898 C34.66172558 29.49386454 33.24931963 24.20102765 31.48046875 18.97265625 C30.90339948 16.60338811 30.91973188 14.42916665 31 12 C30.34 12 29.68 12 29 12 C28.896875 13.26328125 28.79375 14.5265625 28.6875 15.828125 C28.07527971 21.33379624 26.59966439 26.4605437 25 31.75 C24.4565881 33.57760699 23.91486432 35.40571694 23.375 37.234375 C23.01535156 38.42885254 23.01535156 38.42885254 22.6484375 39.64746094 C21.97724741 42.08254666 21.46662238 44.51831727 21 47 C18.03 47 15.06 47 12 47 C9.05616763 39.89962444 7.24444347 32.55313988 5.41064453 25.10913086 C4.87504613 22.93768703 4.33064754 20.76858663 3.78515625 18.59960938 C2.24572924 12.41432779 0.81438225 6.32442541 0 0 Z " fill="#A9B2BA" transform="translate(577,73)"/>
<path d="M0 0 C2.31 0 4.62 0 7 0 C7 15.51 7 31.02 7 47 C4.69 47 2.38 47 0 47 C-0.33 46.01 -0.66 45.02 -1 44 C-1.433125 44.474375 -1.86625 44.94875 -2.3125 45.4375 C-5.38411963 48.28159225 -8.81865627 48.34800264 -12.875 48.2734375 C-16.52816695 47.80336087 -19.23625123 46.41301923 -22 44 C-26.40839822 38.12213571 -27.83816259 32.19422891 -27 25 C-25.275912 19.6590752 -22.7386258 16.11751697 -18 13 C-14.80683387 11.40341693 -11.474496 11.61967483 -8 12 C-2.84375 14.15625 -2.84375 14.15625 -1 16 C-0.67 10.72 -0.34 5.44 0 0 Z " fill="#ABB3BC" transform="translate(507,73)"/>
<path d="M0 0 C2.31 0 4.62 0 7 0 C7 15.51 7 31.02 7 47 C4.69 47 2.38 47 0 47 C-0.33 46.01 -0.66 45.02 -1 44 C-1.433125 44.474375 -1.86625 44.94875 -2.3125 45.4375 C-5.38411963 48.28159225 -8.81865627 48.34800264 -12.875 48.2734375 C-16.52816695 47.80336087 -19.23625123 46.41301923 -22 44 C-26.40839822 38.12213571 -27.83816259 32.19422891 -27 25 C-25.275912 19.6590752 -22.7386258 16.11751697 -18 13 C-14.80885219 11.4044261 -11.47259755 11.61415583 -8 12 C-4.5 13.5 -4.5 13.5 -2 15 C-2 15.66 -2 16.32 -2 17 C-1.34 17 -0.68 17 0 17 C0 11.39 0 5.78 0 0 Z " fill="#ABB3BC" transform="translate(744,73)"/>
<path d="M0 0 C3.86566241 2.30956949 6.56697779 5.37180071 8.5 9.4375 C8.8125 12.375 8.8125 12.375 8.5 14.4375 C5.86 14.4375 3.22 14.4375 0.5 14.4375 C0.1596875 13.2928125 0.1596875 13.2928125 -0.1875 12.125 C-1.87823505 8.66301871 -2.91024181 7.85844595 -6.5 6.4375 C-11.25179246 5.79663325 -15.12158261 5.73362729 -19.4375 7.9375 C-23.62781416 13.01666868 -25.09375671 18.58166093 -24.85546875 25.12890625 C-24.09705683 30.05441661 -22.3144473 34.68602701 -18.69921875 38.17578125 C-15.97182535 39.74052027 -14.19131214 39.80641409 -11.0625 39.75 C-9.67224609 39.74419922 -9.67224609 39.74419922 -8.25390625 39.73828125 C-5.25031519 39.41022946 -3.13298983 38.93351695 -0.5 37.4375 C0.52818386 35.27925066 0.52818386 35.27925066 0.8125 32.8125 C1.039375 31.36875 1.26625 29.925 1.5 28.4375 C-2.46 28.4375 -6.42 28.4375 -10.5 28.4375 C-10.5 26.1275 -10.5 23.8175 -10.5 21.4375 C-3.9 21.4375 2.7 21.4375 9.5 21.4375 C9.5 29.6875 9.5 37.9375 9.5 46.4375 C7.85 46.4375 6.2 46.4375 4.5 46.4375 C4.17 44.7875 3.84 43.1375 3.5 41.4375 C3.02949219 41.78683594 2.55898438 42.13617188 2.07421875 42.49609375 C1.45160156 42.95113281 0.82898438 43.40617187 0.1875 43.875 C-0.42738281 44.32746094 -1.04226563 44.77992187 -1.67578125 45.24609375 C-6.44064823 48.35805184 -12.03141166 47.98205789 -17.5 47.4375 C-23.31724514 45.51308053 -28.71613097 40.87111256 -31.5390625 35.4375 C-34.66413423 27.25974221 -34.58169996 18.53912526 -31.48046875 10.37109375 C-29.9845679 7.42101041 -28.02404848 5.54087374 -25.5 3.4375 C-24.63375 2.695 -23.7675 1.9525 -22.875 1.1875 C-16.81642185 -3.27671548 -6.74032642 -3.01574834 0 0 Z " fill="#A8B1BA" transform="translate(319.5,73.5625)"/>
<path d="M0 0 C4.74842221 2.13412234 7.22339211 4.63591468 9.7109375 9.3125 C11.94485116 16.01424099 11.07127932 22.07659835 7.98828125 28.36328125 C5.44072843 32.25083127 1.99528819 33.8843831 -2.2890625 35.3125 C-7.98169088 35.87634129 -12.43850388 35.61969906 -17.2890625 32.3125 C-22.16562249 27.47558684 -23.495362 23.4168241 -23.7890625 16.625 C-23.76783222 11.49257998 -23.42588485 8.49208235 -20.0390625 4.5625 C-14.28557281 -1.09263944 -7.74802488 -2.32705184 0 0 Z " fill="#A9B1BA" transform="translate(702.2890625,85.6875)"/>
<path d="M0 0 C4.74842221 2.13412234 7.22339211 4.63591468 9.7109375 9.3125 C11.94485116 16.01424099 11.07127932 22.07659835 7.98828125 28.36328125 C5.44072843 32.25083127 1.99528819 33.8843831 -2.2890625 35.3125 C-7.98169088 35.87634129 -12.43850388 35.61969906 -17.2890625 32.3125 C-22.16562249 27.47558684 -23.495362 23.4168241 -23.7890625 16.625 C-23.76783222 11.49257998 -23.42588485 8.49208235 -20.0390625 4.5625 C-14.28557281 -1.09263944 -7.74802488 -2.32705184 0 0 Z " fill="#A9B1BA" transform="translate(663.2890625,85.6875)"/>
<path d="M0 0 C4.74842221 2.13412234 7.22339211 4.63591468 9.7109375 9.3125 C11.94485116 16.01424099 11.07127932 22.07659835 7.98828125 28.36328125 C5.44072843 32.25083127 1.99528819 33.8843831 -2.2890625 35.3125 C-7.98169088 35.87634129 -12.43850388 35.61969906 -17.2890625 32.3125 C-22.16562249 27.47558684 -23.495362 23.4168241 -23.7890625 16.625 C-23.76783222 11.49257998 -23.42588485 8.49208235 -20.0390625 4.5625 C-14.28557281 -1.09263944 -7.74802488 -2.32705184 0 0 Z " fill="#A9B1BA" transform="translate(545.2890625,85.6875)"/>
<path d="M0 0 C4.74842221 2.13412234 7.22339211 4.63591468 9.7109375 9.3125 C11.94485116 16.01424099 11.07127932 22.07659835 7.98828125 28.36328125 C5.44072843 32.25083127 1.99528819 33.8843831 -2.2890625 35.3125 C-7.98169088 35.87634129 -12.43850388 35.61969906 -17.2890625 32.3125 C-22.16562249 27.47558684 -23.495362 23.4168241 -23.7890625 16.625 C-23.76783222 11.49257998 -23.42588485 8.49208235 -20.0390625 4.5625 C-14.28557281 -1.09263944 -7.74802488 -2.32705184 0 0 Z " fill="#A9B1BA" transform="translate(465.2890625,85.6875)"/>
<path d="M0 0 C2.8125 1.5 2.8125 1.5 5 3 C8.02502965 3.2883416 8.02502965 3.2883416 10.125 1.5 C14.01526196 -0.52970189 17.71096946 -1.07049695 22 0 C26.28550913 2.06833555 26.28550913 2.06833555 28 5 C28.75771503 10.11680502 28.56372143 15.16420303 28.375 20.3125 C28.34488282 21.73497003 28.31751005 23.15750098 28.29296875 24.58007812 C28.22706199 28.05465683 28.12364151 31.52694165 28 35 C25.69 35 23.38 35 21 35 C20.970271 33.83428467 20.970271 33.83428467 20.93994141 32.64501953 C20.84492991 29.13799309 20.73515441 25.63158206 20.625 22.125 C20.5940625 20.90167969 20.563125 19.67835937 20.53125 18.41796875 C20.47324219 16.66806641 20.47324219 16.66806641 20.4140625 14.8828125 C20.3826416 13.80402832 20.3512207 12.72524414 20.31884766 11.61376953 C20.25323678 8.84238346 20.25323678 8.84238346 18 7 C14.41656024 6.83322718 14.41656024 6.83322718 11 7 C7.44510723 12.58489856 7.45927817 17.87482375 7.3125 24.375 C7.27833984 25.39722656 7.24417969 26.41945313 7.20898438 27.47265625 C7.12691412 29.98166114 7.05763124 32.49033465 7 35 C4.69 35 2.38 35 0 35 C-0.01981934 34.22285645 -0.03963867 33.44571289 -0.06005859 32.64501953 C-0.15507009 29.13799309 -0.26484559 25.63158206 -0.375 22.125 C-0.4059375 20.90167969 -0.436875 19.67835937 -0.46875 18.41796875 C-0.50742187 17.25136719 -0.54609375 16.08476563 -0.5859375 14.8828125 C-0.6173584 13.80402832 -0.6487793 12.72524414 -0.68115234 11.61376953 C-0.74676322 8.84238346 -0.74676322 8.84238346 -3 7 C-7.17318334 6.52929448 -7.17318334 6.52929448 -10.8125 8.3125 C-13.01679973 11.44492593 -13.16630977 14.39594143 -13.31640625 18.10546875 C-13.35830078 19.08837891 -13.40019531 20.07128906 -13.44335938 21.08398438 C-13.48267578 22.10814453 -13.52199219 23.13230469 -13.5625 24.1875 C-13.62727539 25.74114258 -13.62727539 25.74114258 -13.69335938 27.32617188 C-13.79944366 29.8839819 -13.90150146 32.44188845 -14 35 C-16.31 35 -18.62 35 -21 35 C-21 23.78 -21 12.56 -21 1 C-18.69 1 -16.38 1 -14 1 C-13.67 1.99 -13.34 2.98 -13 4 C-12.34 3.34 -11.68 2.68 -11 2 C-7.18738103 -0.54174598 -4.46528466 -0.78799141 0 0 Z " fill="#ACB5BE" transform="translate(407,85)"/>
<path d="M0 0 C4.19587887 1.49852817 6.79406599 3.07833955 9 7 C9 7.99 9 8.98 9 10 C3.59895833 10.265625 3.59895833 10.265625 1 10 C0 9 -1 8 -2 7 C-4.71602655 6.72241011 -7.25973746 6.86523299 -10 7 C-10.33 8.32 -10.66 9.64 -11 11 C-10.46632813 11.17015625 -9.93265625 11.3403125 -9.3828125 11.515625 C-5.07451598 12.91693944 -0.79988567 14.39633148 3.4375 16 C4.26121094 16.309375 5.08492187 16.61875 5.93359375 16.9375 C8 18 8 18 10 21 C10.78935004 27.99138606 10.78935004 27.99138606 7.75 31.875 C1.72019122 36.53439769 -3.48583042 36.81478947 -11 36 C-15.5077051 33.86477127 -17.90878395 31.53096812 -20 27 C-20 26.01 -20 25.02 -20 24 C-17.36 24 -14.72 24 -12 24 C-11.71125 24.639375 -11.4225 25.27875 -11.125 25.9375 C-10.17176549 28.15206079 -10.17176549 28.15206079 -8 29 C-2.39296787 29.21377721 -2.39296787 29.21377721 3 28 C2.58042042 25.5084524 2.58042042 25.5084524 1 23 C-1.69293858 21.93466166 -4.08660136 21.16625454 -6.875 20.5 C-14.27894541 18.71192732 -14.27894541 18.71192732 -17.46875 15.5625 C-19.57014155 12.04588557 -19.71877229 10.02512481 -19 6 C-13.63631434 -0.37755308 -7.80839357 -0.61761305 0 0 Z " fill="#A8B0B9" transform="translate(778,85)"/>
<path d="M0 0 C9.24 0 18.48 0 28 0 C28 5.62458238 28 5.62458238 25.62109375 8.26953125 C24.8616748 9.13263916 24.8616748 9.13263916 24.08691406 10.01318359 C23.54260742 10.60695801 22.99830078 11.20073242 22.4375 11.8125 C21.8919043 12.42689941 21.34630859 13.04129883 20.78417969 13.67431641 C19.697538 14.89654676 18.60599327 16.11443791 17.50927734 17.32763672 C15.56147579 19.48590922 13.6551974 21.67911269 11.75 23.875 C10.8425 24.90625 9.935 25.9375 9 27 C15.6 27.33 22.2 27.66 29 28 C29 29.98 29 31.96 29 34 C18.77 34 8.54 34 -2 34 C-2 27.40485804 -1.8108624 27.08683145 2.5 22.75 C3.85738281 21.34041016 3.85738281 21.34041016 5.2421875 19.90234375 C5.70334961 19.42522949 6.16451172 18.94811523 6.63964844 18.45654297 C10.0073649 14.85069293 12.96220573 10.88162601 16 7 C10.72 6.67 5.44 6.34 0 6 C0 4.02 0 2.04 0 0 Z " fill="#A9B1BA" transform="translate(352,86)"/>
<path d="M0 0 C2.63016161 2.1727422 4.47336894 3.94673788 6 7 C6.42526125 11.62062705 6.56310381 15.71290557 4.6875 20 C2.22615977 22.91714397 0.45617628 23.9225361 -3.3125 24.5625 C-7.77955841 23.88108431 -9.21781297 22.72197689 -11.90234375 19.20703125 C-13.86319179 15.26440085 -13.74471578 11.27495501 -13 7 C-10.37063906 0.77606968 -6.75564045 -0.94816006 0 0 Z " fill="#0C0F14" transform="translate(660,91)"/>
<path d="M0 0 C2.63016161 2.1727422 4.47336894 3.94673788 6 7 C6.42526125 11.62062705 6.56310381 15.71290557 4.6875 20 C2.22615977 22.91714397 0.45617628 23.9225361 -3.3125 24.5625 C-7.77955841 23.88108431 -9.21781297 22.72197689 -11.90234375 19.20703125 C-13.86319179 15.26440085 -13.74471578 11.27495501 -13 7 C-10.37063906 0.77606968 -6.75564045 -0.94816006 0 0 Z " fill="#0C0F14" transform="translate(542,91)"/>
<path d="M0 0 C2.63016161 2.1727422 4.47336894 3.94673788 6 7 C6.42526125 11.62062705 6.56310381 15.71290557 4.6875 20 C2.22615977 22.91714397 0.45617628 23.9225361 -3.3125 24.5625 C-7.77955841 23.88108431 -9.21781297 22.72197689 -11.90234375 19.20703125 C-13.86319179 15.26440085 -13.74471578 11.27495501 -13 7 C-10.37063906 0.77606968 -6.75564045 -0.94816006 0 0 Z " fill="#0C0F14" transform="translate(462,91)"/>
<path d="M0 0 C2.63016161 2.1727422 4.47336894 3.94673788 6 7 C6.42526125 11.62062705 6.56310381 15.71290557 4.6875 20 C2.22615977 22.91714397 0.45617628 23.9225361 -3.3125 24.5625 C-7.77955841 23.88108431 -9.21781297 22.72197689 -11.90234375 19.20703125 C-13.86319179 15.26440085 -13.74471578 11.27495501 -13 7 C-10.37063906 0.77606968 -6.75564045 -0.94816006 0 0 Z " fill="#0C0F14" transform="translate(699,91)"/>
<path d="M0 0 C3.3175403 2.0914928 4.67752248 3.75912161 5.66796875 7.5703125 C6.32500269 12.3451928 6.40620767 15.17307724 4.25 19.5625 C1.64020047 22.38978282 -0.03017296 23.85241762 -3.875 24.4375 C-8.02610555 23.85634522 -9.36573506 22.16111793 -12 19 C-13.85269921 15.29460158 -13.46444489 11.04376687 -13 7 C-10.31621627 0.62760357 -6.70217009 -0.68157662 0 0 Z " fill="#0C1015" transform="translate(738,91)"/>
<path d="M0 0 C3.3175403 2.0914928 4.67752248 3.75912161 5.66796875 7.5703125 C6.32500269 12.3451928 6.40620767 15.17307724 4.25 19.5625 C1.64020047 22.38978282 -0.03017296 23.85241762 -3.875 24.4375 C-8.02610555 23.85634522 -9.36573506 22.16111793 -12 19 C-13.85269921 15.29460158 -13.46444489 11.04376687 -13 7 C-10.31621627 0.62760357 -6.70217009 -0.68157662 0 0 Z " fill="#0C1015" transform="translate(501,91)"/>
<path d="M0 0 C2.64 0 5.28 0 8 0 C8 11.22 8 22.44 8 34 C5.36 34 2.72 34 0 34 C0 22.78 0 11.56 0 0 Z " fill="#A5AEB6" transform="translate(337,86)"/>
<path d="M0 0 C2.64 0 5.28 0 8 0 C8 2.31 8 4.62 8 7 C5.36 7 2.72 7 0 7 C0 4.69 0 2.38 0 0 Z " fill="#A5ADB6" transform="translate(337,73)"/>
</svg>
